# xmcd
#
# Track frame offsets: 
#        150
#        20027
#        34455
#        53842
#        78830
#        92925
#        115837
#        134225
#        146522
#        165550
#
# Disc length: 2458 seconds
#
# Revision: 1
# Processed by: cddbd v1.5.2PL0 Copyright (c) Steve Scherf et al.
# Submitted via: ExactAudioCopy v0.99pb5
#
DISCID=8c09980a
DTITLE=Downchild Blues Band - But, I'm on the Guest List
DYEAR=1982
DGENRE=Blues
TTITLE0=Caledonia
TTITLE1=(I Got Everything I Need) Almost
TTITLE2=Tramp
TTITLE3=Shotgun Blues
TTITLE4=Flip Flop and  Fly
TTITLE5=Gonna Tell Your Mother
TTITLE6=You Don't Do
TTITLE7=One More Chance
TTITLE8=Done Changed My Way of Living
TTITLE9=T.V. Mama
EXTD=
EXTT0=
EXTT1=
EXTT2=
EXTT3=
EXTT4=
EXTT5=
EXTT6=
EXTT7=
EXTT8=
EXTT9=
PLAYORDER=
